<mxfile host="app.diagrams.net" agent="Mozilla/5.0 (Windows NT 10.0; Win64; x64) AppleWebKit/537.36 (KHTML, like Gecko) Chrome/140.0.0.0 Safari/537.36" version="28.2.8">
  <diagram name="Page-1" id="fP-dvQESyxHKGSXMY9-8">
    <mxGraphModel dx="3660" dy="1606" grid="1" gridSize="10" guides="1" tooltips="1" connect="1" arrows="1" fold="1" page="1" pageScale="1" pageWidth="3300" pageHeight="4681" math="0" shadow="0">
      <root>
        <mxCell id="0" />
        <mxCell id="1" parent="0" />
        <mxCell id="CgrZ7WxuLpIuJzu3LAh--15" value="&lt;b&gt;&lt;u&gt;Fac_id&lt;/u&gt;&lt;/b&gt;" style="whiteSpace=wrap;html=1;align=center;" parent="1" vertex="1">
          <mxGeometry x="160" y="150" width="100" height="30" as="geometry" />
        </mxCell>
        <mxCell id="CgrZ7WxuLpIuJzu3LAh--16" value="&lt;font style=&quot;font-size: 18px;&quot;&gt;FACULTY&lt;/font&gt;" style="text;html=1;whiteSpace=wrap;strokeColor=none;fillColor=none;align=center;verticalAlign=middle;rounded=0;" parent="1" vertex="1">
          <mxGeometry x="149" y="100" width="100" height="30" as="geometry" />
        </mxCell>
        <mxCell id="CgrZ7WxuLpIuJzu3LAh--17" value="&lt;b&gt;Fac_name&lt;/b&gt;" style="whiteSpace=wrap;html=1;align=center;" parent="1" vertex="1">
          <mxGeometry x="250" y="150" width="100" height="30" as="geometry" />
        </mxCell>
        <mxCell id="CgrZ7WxuLpIuJzu3LAh--18" value="&lt;b&gt;Dean&lt;/b&gt;" style="whiteSpace=wrap;html=1;align=center;" parent="1" vertex="1">
          <mxGeometry x="350" y="150" width="100" height="30" as="geometry" />
        </mxCell>
        <mxCell id="CgrZ7WxuLpIuJzu3LAh--21" value="&lt;span style=&quot;font-size: 18px;&quot;&gt;DEPARTMENT&lt;/span&gt;" style="text;html=1;whiteSpace=wrap;strokeColor=none;fillColor=none;align=center;verticalAlign=middle;rounded=0;" parent="1" vertex="1">
          <mxGeometry x="170" y="211" width="100" height="30" as="geometry" />
        </mxCell>
        <mxCell id="CgrZ7WxuLpIuJzu3LAh--23" value="&lt;b&gt;&lt;u&gt;Dep_id&lt;/u&gt;&lt;/b&gt;" style="whiteSpace=wrap;html=1;align=center;" parent="1" vertex="1">
          <mxGeometry x="161" y="249" width="100" height="30" as="geometry" />
        </mxCell>
        <mxCell id="CgrZ7WxuLpIuJzu3LAh--24" value="&lt;b&gt;Dep_name&lt;/b&gt;" style="whiteSpace=wrap;html=1;align=center;" parent="1" vertex="1">
          <mxGeometry x="250" y="249" width="100" height="30" as="geometry" />
        </mxCell>
        <mxCell id="CgrZ7WxuLpIuJzu3LAh--25" value="&lt;b&gt;HOD&lt;/b&gt;" style="whiteSpace=wrap;html=1;align=center;" parent="1" vertex="1">
          <mxGeometry x="350" y="249" width="100" height="30" as="geometry" />
        </mxCell>
        <mxCell id="CgrZ7WxuLpIuJzu3LAh--26" value="&lt;span style=&quot;font-size: 18px;&quot;&gt;ACADEMIC_STAFF&lt;/span&gt;" style="text;html=1;whiteSpace=wrap;strokeColor=none;fillColor=none;align=center;verticalAlign=middle;rounded=0;" parent="1" vertex="1">
          <mxGeometry x="191" y="319" width="100" height="30" as="geometry" />
        </mxCell>
        <mxCell id="CgrZ7WxuLpIuJzu3LAh--27" value="&lt;b&gt;&lt;u&gt;Staff_id&lt;/u&gt;&lt;/b&gt;" style="whiteSpace=wrap;html=1;align=center;" parent="1" vertex="1">
          <mxGeometry x="160" y="380" width="100" height="30" as="geometry" />
        </mxCell>
        <mxCell id="CgrZ7WxuLpIuJzu3LAh--28" value="&lt;b&gt;First_name&lt;/b&gt;" style="whiteSpace=wrap;html=1;align=center;" parent="1" vertex="1">
          <mxGeometry x="250" y="380" width="100" height="30" as="geometry" />
        </mxCell>
        <mxCell id="CgrZ7WxuLpIuJzu3LAh--29" value="&lt;b&gt;Last_name&lt;/b&gt;" style="whiteSpace=wrap;html=1;align=center;" parent="1" vertex="1">
          <mxGeometry x="350" y="380" width="100" height="30" as="geometry" />
        </mxCell>
        <mxCell id="CgrZ7WxuLpIuJzu3LAh--30" value="&lt;b&gt;Address&lt;/b&gt;" style="whiteSpace=wrap;html=1;align=center;" parent="1" vertex="1">
          <mxGeometry x="450" y="380" width="100" height="30" as="geometry" />
        </mxCell>
        <mxCell id="CgrZ7WxuLpIuJzu3LAh--31" value="&lt;b&gt;Status&lt;/b&gt;" style="whiteSpace=wrap;html=1;align=center;" parent="1" vertex="1">
          <mxGeometry x="550" y="380" width="100" height="30" as="geometry" />
        </mxCell>
        <mxCell id="CgrZ7WxuLpIuJzu3LAh--32" value="&lt;b&gt;Gender&lt;/b&gt;" style="whiteSpace=wrap;html=1;align=center;" parent="1" vertex="1">
          <mxGeometry x="650" y="380" width="100" height="30" as="geometry" />
        </mxCell>
        <mxCell id="CgrZ7WxuLpIuJzu3LAh--33" value="&lt;b&gt;Appoint_date&lt;/b&gt;" style="whiteSpace=wrap;html=1;align=center;" parent="1" vertex="1">
          <mxGeometry x="750" y="380" width="100" height="30" as="geometry" />
        </mxCell>
        <mxCell id="CgrZ7WxuLpIuJzu3LAh--34" value="&lt;b&gt;NIC&lt;/b&gt;" style="whiteSpace=wrap;html=1;align=center;" parent="1" vertex="1">
          <mxGeometry x="850" y="380" width="100" height="30" as="geometry" />
        </mxCell>
        <mxCell id="CgrZ7WxuLpIuJzu3LAh--35" value="&lt;b&gt;E_mail&lt;/b&gt;" style="whiteSpace=wrap;html=1;align=center;" parent="1" vertex="1">
          <mxGeometry x="950" y="380" width="100" height="30" as="geometry" />
        </mxCell>
        <mxCell id="CgrZ7WxuLpIuJzu3LAh--36" value="&lt;span style=&quot;font-size: 18px;&quot;&gt;STAFF_CONTUCT&lt;/span&gt;" style="text;html=1;whiteSpace=wrap;strokeColor=none;fillColor=none;align=center;verticalAlign=middle;rounded=0;" parent="1" vertex="1">
          <mxGeometry x="186" y="460" width="100" height="30" as="geometry" />
        </mxCell>
        <mxCell id="Z2Ysq-v7f8SYOui31A2H-7" style="edgeStyle=orthogonalEdgeStyle;rounded=0;orthogonalLoop=1;jettySize=auto;html=1;exitX=0.5;exitY=0;exitDx=0;exitDy=0;entryX=0.75;entryY=1;entryDx=0;entryDy=0;" edge="1" parent="1" source="CgrZ7WxuLpIuJzu3LAh--38" target="CgrZ7WxuLpIuJzu3LAh--27">
          <mxGeometry relative="1" as="geometry">
            <Array as="points">
              <mxPoint x="210" y="500" />
              <mxPoint x="140" y="500" />
              <mxPoint x="140" y="440" />
              <mxPoint x="235" y="440" />
            </Array>
          </mxGeometry>
        </mxCell>
        <mxCell id="CgrZ7WxuLpIuJzu3LAh--38" value="&lt;b&gt;&lt;u&gt;Staff_id&lt;/u&gt;&lt;/b&gt;" style="whiteSpace=wrap;html=1;align=center;" parent="1" vertex="1">
          <mxGeometry x="160" y="518" width="100" height="30" as="geometry" />
        </mxCell>
        <mxCell id="CgrZ7WxuLpIuJzu3LAh--39" value="&lt;b&gt;Phone_number&lt;/b&gt;" style="whiteSpace=wrap;html=1;align=center;" parent="1" vertex="1">
          <mxGeometry x="260" y="518" width="100" height="30" as="geometry" />
        </mxCell>
        <mxCell id="CgrZ7WxuLpIuJzu3LAh--40" value="&lt;span style=&quot;font-size: 18px;&quot;&gt;STAFF_DEGREE&lt;/span&gt;" style="text;html=1;whiteSpace=wrap;strokeColor=none;fillColor=none;align=center;verticalAlign=middle;rounded=0;" parent="1" vertex="1">
          <mxGeometry x="180" y="578" width="100" height="30" as="geometry" />
        </mxCell>
        <mxCell id="Z2Ysq-v7f8SYOui31A2H-9" style="edgeStyle=orthogonalEdgeStyle;rounded=0;orthogonalLoop=1;jettySize=auto;html=1;exitX=0.5;exitY=0;exitDx=0;exitDy=0;entryX=0.5;entryY=1;entryDx=0;entryDy=0;" edge="1" parent="1" source="CgrZ7WxuLpIuJzu3LAh--43" target="CgrZ7WxuLpIuJzu3LAh--27">
          <mxGeometry relative="1" as="geometry">
            <mxPoint x="210" y="420" as="targetPoint" />
            <Array as="points">
              <mxPoint x="210" y="610" />
              <mxPoint x="130" y="610" />
              <mxPoint x="130" y="430" />
              <mxPoint x="210" y="430" />
            </Array>
          </mxGeometry>
        </mxCell>
        <mxCell id="CgrZ7WxuLpIuJzu3LAh--43" value="&lt;b&gt;&lt;u&gt;Staff_id&lt;/u&gt;&lt;/b&gt;" style="whiteSpace=wrap;html=1;align=center;" parent="1" vertex="1">
          <mxGeometry x="160" y="618" width="100" height="30" as="geometry" />
        </mxCell>
        <mxCell id="CgrZ7WxuLpIuJzu3LAh--44" value="&lt;b&gt;Degree&lt;/b&gt;" style="whiteSpace=wrap;html=1;align=center;" parent="1" vertex="1">
          <mxGeometry x="260" y="618" width="100" height="30" as="geometry" />
        </mxCell>
        <mxCell id="CgrZ7WxuLpIuJzu3LAh--46" value="&lt;span style=&quot;font-size: 18px;&quot;&gt;LECTURER&lt;/span&gt;" style="text;html=1;whiteSpace=wrap;strokeColor=none;fillColor=none;align=center;verticalAlign=middle;rounded=0;" parent="1" vertex="1">
          <mxGeometry x="159" y="670" width="100" height="30" as="geometry" />
        </mxCell>
        <mxCell id="Z2Ysq-v7f8SYOui31A2H-10" style="edgeStyle=orthogonalEdgeStyle;rounded=0;orthogonalLoop=1;jettySize=auto;html=1;exitX=0.5;exitY=0;exitDx=0;exitDy=0;entryX=0.25;entryY=1;entryDx=0;entryDy=0;" edge="1" parent="1" source="CgrZ7WxuLpIuJzu3LAh--47" target="CgrZ7WxuLpIuJzu3LAh--27">
          <mxGeometry relative="1" as="geometry">
            <mxPoint x="180" y="420" as="targetPoint" />
            <Array as="points">
              <mxPoint x="210" y="710" />
              <mxPoint x="120" y="710" />
              <mxPoint x="120" y="420" />
              <mxPoint x="185" y="420" />
            </Array>
          </mxGeometry>
        </mxCell>
        <mxCell id="CgrZ7WxuLpIuJzu3LAh--47" value="&lt;b&gt;&lt;u&gt;Lec_id&lt;/u&gt;&lt;/b&gt;" style="whiteSpace=wrap;html=1;align=center;" parent="1" vertex="1">
          <mxGeometry x="160" y="720" width="100" height="30" as="geometry" />
        </mxCell>
        <mxCell id="CgrZ7WxuLpIuJzu3LAh--48" value="&lt;b&gt;Type&lt;/b&gt;" style="whiteSpace=wrap;html=1;align=center;" parent="1" vertex="1">
          <mxGeometry x="260" y="720" width="100" height="30" as="geometry" />
        </mxCell>
        <mxCell id="CgrZ7WxuLpIuJzu3LAh--51" value="&lt;b&gt;Dep_id&lt;/b&gt;" style="whiteSpace=wrap;html=1;align=center;" parent="1" vertex="1">
          <mxGeometry x="360" y="720" width="100" height="30" as="geometry" />
        </mxCell>
        <mxCell id="CgrZ7WxuLpIuJzu3LAh--52" value="&lt;span style=&quot;font-size: 18px;&quot;&gt;DEMONSTARTOR&lt;/span&gt;" style="text;html=1;whiteSpace=wrap;strokeColor=none;fillColor=none;align=center;verticalAlign=middle;rounded=0;" parent="1" vertex="1">
          <mxGeometry x="186" y="776" width="100" height="30" as="geometry" />
        </mxCell>
        <mxCell id="Z2Ysq-v7f8SYOui31A2H-12" style="edgeStyle=orthogonalEdgeStyle;rounded=0;orthogonalLoop=1;jettySize=auto;html=1;exitX=0.5;exitY=0;exitDx=0;exitDy=0;entryX=0.013;entryY=0.673;entryDx=0;entryDy=0;entryPerimeter=0;" edge="1" parent="1" source="CgrZ7WxuLpIuJzu3LAh--53" target="CgrZ7WxuLpIuJzu3LAh--27">
          <mxGeometry relative="1" as="geometry">
            <mxPoint x="150" y="410" as="targetPoint" />
            <Array as="points">
              <mxPoint x="210" y="810" />
              <mxPoint x="110" y="810" />
              <mxPoint x="110" y="400" />
            </Array>
          </mxGeometry>
        </mxCell>
        <mxCell id="CgrZ7WxuLpIuJzu3LAh--53" value="&lt;b&gt;&lt;u&gt;Dem_id&lt;/u&gt;&lt;/b&gt;" style="whiteSpace=wrap;html=1;align=center;" parent="1" vertex="1">
          <mxGeometry x="160" y="820" width="100" height="30" as="geometry" />
        </mxCell>
        <mxCell id="CgrZ7WxuLpIuJzu3LAh--54" value="&lt;b&gt;Type&lt;/b&gt;" style="whiteSpace=wrap;html=1;align=center;" parent="1" vertex="1">
          <mxGeometry x="260" y="820" width="100" height="30" as="geometry" />
        </mxCell>
        <mxCell id="CgrZ7WxuLpIuJzu3LAh--55" value="&lt;b&gt;Dep_id&lt;/b&gt;" style="whiteSpace=wrap;html=1;align=center;" parent="1" vertex="1">
          <mxGeometry x="360" y="820" width="100" height="30" as="geometry" />
        </mxCell>
        <mxCell id="CgrZ7WxuLpIuJzu3LAh--56" value="&lt;span style=&quot;font-size: 18px;&quot;&gt;DEAN&lt;/span&gt;" style="text;html=1;whiteSpace=wrap;strokeColor=none;fillColor=none;align=center;verticalAlign=middle;rounded=0;" parent="1" vertex="1">
          <mxGeometry x="136" y="873" width="100" height="30" as="geometry" />
        </mxCell>
        <mxCell id="CgrZ7WxuLpIuJzu3LAh--57" value="&lt;b&gt;&lt;u&gt;Dean_id&lt;/u&gt;&lt;/b&gt;" style="whiteSpace=wrap;html=1;align=center;" parent="1" vertex="1">
          <mxGeometry x="160" y="920" width="100" height="30" as="geometry" />
        </mxCell>
        <mxCell id="CgrZ7WxuLpIuJzu3LAh--58" value="&lt;b&gt;Appoint_date&lt;/b&gt;" style="whiteSpace=wrap;html=1;align=center;" parent="1" vertex="1">
          <mxGeometry x="260" y="920" width="100" height="30" as="geometry" />
        </mxCell>
        <mxCell id="CgrZ7WxuLpIuJzu3LAh--59" value="&lt;span style=&quot;font-size: 18px;&quot;&gt;COURSE&lt;/span&gt;" style="text;html=1;whiteSpace=wrap;strokeColor=none;fillColor=none;align=center;verticalAlign=middle;rounded=0;" parent="1" vertex="1">
          <mxGeometry x="153" y="970" width="100" height="30" as="geometry" />
        </mxCell>
        <mxCell id="CgrZ7WxuLpIuJzu3LAh--60" value="&lt;b&gt;&lt;u&gt;Course_id&lt;/u&gt;&lt;/b&gt;" style="whiteSpace=wrap;html=1;align=center;" parent="1" vertex="1">
          <mxGeometry x="160" y="1009" width="100" height="30" as="geometry" />
        </mxCell>
        <mxCell id="CgrZ7WxuLpIuJzu3LAh--61" value="&lt;b&gt;Course_name&lt;/b&gt;" style="whiteSpace=wrap;html=1;align=center;" parent="1" vertex="1">
          <mxGeometry x="260" y="1009" width="100" height="30" as="geometry" />
        </mxCell>
        <mxCell id="CgrZ7WxuLpIuJzu3LAh--62" value="&lt;b&gt;Total_credits&lt;/b&gt;" style="whiteSpace=wrap;html=1;align=center;" parent="1" vertex="1">
          <mxGeometry x="360" y="1009" width="100" height="30" as="geometry" />
        </mxCell>
        <mxCell id="Z2Ysq-v7f8SYOui31A2H-5" style="edgeStyle=orthogonalEdgeStyle;rounded=0;orthogonalLoop=1;jettySize=auto;html=1;exitX=0.5;exitY=0;exitDx=0;exitDy=0;entryX=0.214;entryY=0.971;entryDx=0;entryDy=0;entryPerimeter=0;" edge="1" parent="1" target="CgrZ7WxuLpIuJzu3LAh--23">
          <mxGeometry relative="1" as="geometry">
            <mxPoint x="511" y="1030" as="sourcePoint" />
            <mxPoint x="187.00000000000006" y="310" as="targetPoint" />
            <Array as="points">
              <mxPoint x="511" y="980" />
              <mxPoint x="1160" y="980" />
              <mxPoint x="1160" y="310" />
              <mxPoint x="182" y="310" />
            </Array>
          </mxGeometry>
        </mxCell>
        <mxCell id="CgrZ7WxuLpIuJzu3LAh--63" value="&lt;b&gt;Dep_id&lt;/b&gt;" style="whiteSpace=wrap;html=1;align=center;" parent="1" vertex="1">
          <mxGeometry x="460" y="1009" width="100" height="30" as="geometry" />
        </mxCell>
        <mxCell id="CgrZ7WxuLpIuJzu3LAh--64" style="edgeStyle=orthogonalEdgeStyle;rounded=0;orthogonalLoop=1;jettySize=auto;html=1;exitX=0.5;exitY=1;exitDx=0;exitDy=0;" parent="1" source="CgrZ7WxuLpIuJzu3LAh--59" target="CgrZ7WxuLpIuJzu3LAh--59" edge="1">
          <mxGeometry relative="1" as="geometry" />
        </mxCell>
        <mxCell id="CgrZ7WxuLpIuJzu3LAh--65" value="&lt;span style=&quot;font-size: 18px;&quot;&gt;STUDENT&lt;/span&gt;" style="text;html=1;whiteSpace=wrap;strokeColor=none;fillColor=none;align=center;verticalAlign=middle;rounded=0;" parent="1" vertex="1">
          <mxGeometry x="153" y="1064" width="100" height="30" as="geometry" />
        </mxCell>
        <mxCell id="CgrZ7WxuLpIuJzu3LAh--66" value="&lt;b&gt;&lt;u&gt;Reg_no&lt;/u&gt;&lt;/b&gt;" style="whiteSpace=wrap;html=1;align=center;" parent="1" vertex="1">
          <mxGeometry x="160" y="1136" width="100" height="30" as="geometry" />
        </mxCell>
        <mxCell id="CgrZ7WxuLpIuJzu3LAh--67" value="&lt;b&gt;First_name&lt;/b&gt;" style="whiteSpace=wrap;html=1;align=center;" parent="1" vertex="1">
          <mxGeometry x="260" y="1136" width="100" height="30" as="geometry" />
        </mxCell>
        <mxCell id="CgrZ7WxuLpIuJzu3LAh--68" value="&lt;b&gt;Last_name&lt;/b&gt;" style="whiteSpace=wrap;html=1;align=center;" parent="1" vertex="1">
          <mxGeometry x="360" y="1136" width="100" height="30" as="geometry" />
        </mxCell>
        <mxCell id="CgrZ7WxuLpIuJzu3LAh--69" value="&lt;b&gt;Batch&lt;/b&gt;" style="whiteSpace=wrap;html=1;align=center;" parent="1" vertex="1">
          <mxGeometry x="460" y="1136" width="100" height="30" as="geometry" />
        </mxCell>
        <mxCell id="CgrZ7WxuLpIuJzu3LAh--70" value="&lt;b&gt;Address&lt;/b&gt;" style="whiteSpace=wrap;html=1;align=center;" parent="1" vertex="1">
          <mxGeometry x="560" y="1136" width="100" height="30" as="geometry" />
        </mxCell>
        <mxCell id="CgrZ7WxuLpIuJzu3LAh--71" value="&lt;b&gt;Gender&lt;/b&gt;" style="whiteSpace=wrap;html=1;align=center;" parent="1" vertex="1">
          <mxGeometry x="660" y="1136" width="100" height="30" as="geometry" />
        </mxCell>
        <mxCell id="CgrZ7WxuLpIuJzu3LAh--72" value="&lt;b&gt;NIC&lt;/b&gt;" style="whiteSpace=wrap;html=1;align=center;" parent="1" vertex="1">
          <mxGeometry x="760" y="1136" width="100" height="30" as="geometry" />
        </mxCell>
        <mxCell id="CgrZ7WxuLpIuJzu3LAh--73" value="&lt;b&gt;E_mail&lt;/b&gt;" style="whiteSpace=wrap;html=1;align=center;" parent="1" vertex="1">
          <mxGeometry x="860" y="1136" width="100" height="30" as="geometry" />
        </mxCell>
        <mxCell id="CgrZ7WxuLpIuJzu3LAh--74" value="&lt;b&gt;DOB&lt;/b&gt;" style="whiteSpace=wrap;html=1;align=center;" parent="1" vertex="1">
          <mxGeometry x="960" y="1136" width="100" height="30" as="geometry" />
        </mxCell>
        <mxCell id="CgrZ7WxuLpIuJzu3LAh--75" value="&lt;b&gt;Course_id&lt;/b&gt;" style="whiteSpace=wrap;html=1;align=center;" parent="1" vertex="1">
          <mxGeometry x="1060" y="1136" width="100" height="30" as="geometry" />
        </mxCell>
        <mxCell id="Z2Ysq-v7f8SYOui31A2H-6" style="edgeStyle=orthogonalEdgeStyle;rounded=0;orthogonalLoop=1;jettySize=auto;html=1;exitX=0.5;exitY=0;exitDx=0;exitDy=0;entryX=0.75;entryY=1;entryDx=0;entryDy=0;" edge="1" parent="1" source="CgrZ7WxuLpIuJzu3LAh--76" target="CgrZ7WxuLpIuJzu3LAh--23">
          <mxGeometry relative="1" as="geometry">
            <Array as="points">
              <mxPoint x="1210" y="300" />
              <mxPoint x="236" y="300" />
            </Array>
          </mxGeometry>
        </mxCell>
        <mxCell id="CgrZ7WxuLpIuJzu3LAh--76" value="&lt;b&gt;Dep_id&lt;/b&gt;" style="whiteSpace=wrap;html=1;align=center;" parent="1" vertex="1">
          <mxGeometry x="1160" y="1136" width="100" height="30" as="geometry" />
        </mxCell>
        <mxCell id="CgrZ7WxuLpIuJzu3LAh--77" value="&lt;span style=&quot;font-size: 18px;&quot;&gt;STUDENT_CONTUCT&lt;/span&gt;" style="text;html=1;whiteSpace=wrap;strokeColor=none;fillColor=none;align=center;verticalAlign=middle;rounded=0;" parent="1" vertex="1">
          <mxGeometry x="200" y="1238" width="100" height="30" as="geometry" />
        </mxCell>
        <mxCell id="Z2Ysq-v7f8SYOui31A2H-14" style="edgeStyle=orthogonalEdgeStyle;rounded=0;orthogonalLoop=1;jettySize=auto;html=1;exitX=0.405;exitY=-0.027;exitDx=0;exitDy=0;entryX=0.147;entryY=0.959;entryDx=0;entryDy=0;entryPerimeter=0;exitPerimeter=0;" edge="1" parent="1" source="CgrZ7WxuLpIuJzu3LAh--78" target="CgrZ7WxuLpIuJzu3LAh--66">
          <mxGeometry relative="1" as="geometry">
            <mxPoint x="199.99" y="1220" as="sourcePoint" />
            <mxPoint x="149.99" y="1125" as="targetPoint" />
            <Array as="points">
              <mxPoint x="200" y="1270" />
              <mxPoint x="140" y="1270" />
              <mxPoint x="140" y="1200" />
              <mxPoint x="175" y="1200" />
              <mxPoint x="175" y="1165" />
            </Array>
          </mxGeometry>
        </mxCell>
        <mxCell id="CgrZ7WxuLpIuJzu3LAh--78" value="&lt;b&gt;&lt;u&gt;Reg_no&lt;/u&gt;&lt;/b&gt;" style="whiteSpace=wrap;html=1;align=center;" parent="1" vertex="1">
          <mxGeometry x="160" y="1278" width="100" height="30" as="geometry" />
        </mxCell>
        <mxCell id="CgrZ7WxuLpIuJzu3LAh--79" value="&lt;b&gt;Phone_number&lt;/b&gt;" style="whiteSpace=wrap;html=1;align=center;" parent="1" vertex="1">
          <mxGeometry x="260" y="1278" width="100" height="30" as="geometry" />
        </mxCell>
        <mxCell id="CgrZ7WxuLpIuJzu3LAh--80" value="&lt;span style=&quot;font-size: 18px;&quot;&gt;SUBJECT&lt;/span&gt;" style="text;html=1;whiteSpace=wrap;strokeColor=none;fillColor=none;align=center;verticalAlign=middle;rounded=0;" parent="1" vertex="1">
          <mxGeometry x="153" y="1312" width="100" height="30" as="geometry" />
        </mxCell>
        <mxCell id="CgrZ7WxuLpIuJzu3LAh--81" value="&lt;b&gt;&lt;u&gt;Sub_code&lt;/u&gt;&lt;/b&gt;" style="whiteSpace=wrap;html=1;align=center;" parent="1" vertex="1">
          <mxGeometry x="160" y="1358" width="100" height="30" as="geometry" />
        </mxCell>
        <mxCell id="CgrZ7WxuLpIuJzu3LAh--82" value="&lt;b&gt;Phone_number&lt;/b&gt;" style="whiteSpace=wrap;html=1;align=center;" parent="1" vertex="1">
          <mxGeometry x="260" y="1358" width="100" height="30" as="geometry" />
        </mxCell>
        <mxCell id="CgrZ7WxuLpIuJzu3LAh--83" value="&lt;b&gt;Credit&lt;/b&gt;" style="whiteSpace=wrap;html=1;align=center;" parent="1" vertex="1">
          <mxGeometry x="360" y="1358" width="100" height="30" as="geometry" />
        </mxCell>
        <mxCell id="CgrZ7WxuLpIuJzu3LAh--84" value="&lt;b&gt;Total_hour&lt;/b&gt;" style="whiteSpace=wrap;html=1;align=center;" parent="1" vertex="1">
          <mxGeometry x="460" y="1358" width="100" height="30" as="geometry" />
        </mxCell>
        <mxCell id="CgrZ7WxuLpIuJzu3LAh--85" value="&lt;b&gt;Lec_id&lt;/b&gt;" style="whiteSpace=wrap;html=1;align=center;" parent="1" vertex="1">
          <mxGeometry x="560" y="1358" width="100" height="30" as="geometry" />
        </mxCell>
        <mxCell id="CgrZ7WxuLpIuJzu3LAh--86" value="&lt;span style=&quot;font-size: 18px;&quot;&gt;COURSE_SUBJECT&lt;/span&gt;" style="text;html=1;whiteSpace=wrap;strokeColor=none;fillColor=none;align=center;verticalAlign=middle;rounded=0;" parent="1" vertex="1">
          <mxGeometry x="194" y="1416" width="100" height="30" as="geometry" />
        </mxCell>
        <mxCell id="Z2Ysq-v7f8SYOui31A2H-13" style="edgeStyle=orthogonalEdgeStyle;rounded=0;orthogonalLoop=1;jettySize=auto;html=1;exitX=0.5;exitY=0;exitDx=0;exitDy=0;entryX=0.5;entryY=1;entryDx=0;entryDy=0;" edge="1" parent="1" source="CgrZ7WxuLpIuJzu3LAh--87" target="CgrZ7WxuLpIuJzu3LAh--60">
          <mxGeometry relative="1" as="geometry">
            <Array as="points">
              <mxPoint x="211" y="1460" />
              <mxPoint x="100" y="1460" />
              <mxPoint x="100" y="1050" />
              <mxPoint x="210" y="1050" />
            </Array>
          </mxGeometry>
        </mxCell>
        <mxCell id="CgrZ7WxuLpIuJzu3LAh--87" value="&lt;b&gt;&lt;u&gt;Course_id&lt;/u&gt;&lt;/b&gt;" style="whiteSpace=wrap;html=1;align=center;" parent="1" vertex="1">
          <mxGeometry x="161" y="1474" width="100" height="30" as="geometry" />
        </mxCell>
        <mxCell id="Z2Ysq-v7f8SYOui31A2H-15" style="edgeStyle=orthogonalEdgeStyle;rounded=0;orthogonalLoop=1;jettySize=auto;html=1;exitX=0.5;exitY=0;exitDx=0;exitDy=0;entryX=0.5;entryY=1;entryDx=0;entryDy=0;" edge="1" parent="1" source="CgrZ7WxuLpIuJzu3LAh--88" target="CgrZ7WxuLpIuJzu3LAh--81">
          <mxGeometry relative="1" as="geometry">
            <Array as="points">
              <mxPoint x="311" y="1450" />
              <mxPoint x="130" y="1450" />
              <mxPoint x="130" y="1410" />
              <mxPoint x="210" y="1410" />
            </Array>
          </mxGeometry>
        </mxCell>
        <mxCell id="CgrZ7WxuLpIuJzu3LAh--88" value="&lt;b&gt;Sub_code&lt;/b&gt;" style="whiteSpace=wrap;html=1;align=center;" parent="1" vertex="1">
          <mxGeometry x="261" y="1474" width="100" height="30" as="geometry" />
        </mxCell>
        <mxCell id="CgrZ7WxuLpIuJzu3LAh--90" value="&lt;span style=&quot;font-size: 18px;&quot;&gt;STUDENT_SUBJECT&lt;/span&gt;" style="text;html=1;whiteSpace=wrap;strokeColor=none;fillColor=none;align=center;verticalAlign=middle;rounded=0;" parent="1" vertex="1">
          <mxGeometry x="200" y="1529" width="100" height="30" as="geometry" />
        </mxCell>
        <mxCell id="Z2Ysq-v7f8SYOui31A2H-17" style="edgeStyle=orthogonalEdgeStyle;rounded=0;orthogonalLoop=1;jettySize=auto;html=1;exitX=0.5;exitY=0;exitDx=0;exitDy=0;entryX=0.5;entryY=1;entryDx=0;entryDy=0;" edge="1" parent="1" source="CgrZ7WxuLpIuJzu3LAh--91" target="CgrZ7WxuLpIuJzu3LAh--66">
          <mxGeometry relative="1" as="geometry">
            <Array as="points">
              <mxPoint x="211" y="1560" />
              <mxPoint x="730" y="1560" />
              <mxPoint x="730" y="1196" />
              <mxPoint x="210" y="1196" />
            </Array>
          </mxGeometry>
        </mxCell>
        <mxCell id="CgrZ7WxuLpIuJzu3LAh--91" value="&lt;b&gt;&lt;u&gt;Reg_no&lt;/u&gt;&lt;/b&gt;" style="whiteSpace=wrap;html=1;align=center;" parent="1" vertex="1">
          <mxGeometry x="161" y="1577" width="100" height="30" as="geometry" />
        </mxCell>
        <mxCell id="CgrZ7WxuLpIuJzu3LAh--92" value="&lt;b&gt;&lt;u&gt;Sub_code&lt;/u&gt;&lt;/b&gt;" style="whiteSpace=wrap;html=1;align=center;" parent="1" vertex="1">
          <mxGeometry x="260" y="1577" width="100" height="30" as="geometry" />
        </mxCell>
        <mxCell id="CgrZ7WxuLpIuJzu3LAh--96" value="&lt;span style=&quot;font-size: 18px;&quot;&gt;EXAM&lt;/span&gt;" style="text;html=1;whiteSpace=wrap;strokeColor=none;fillColor=none;align=center;verticalAlign=middle;rounded=0;" parent="1" vertex="1">
          <mxGeometry x="136" y="1616" width="100" height="30" as="geometry" />
        </mxCell>
        <mxCell id="CgrZ7WxuLpIuJzu3LAh--97" value="&lt;b&gt;&lt;u&gt;Exam_id&lt;/u&gt;&lt;/b&gt;" style="whiteSpace=wrap;html=1;align=center;" parent="1" vertex="1">
          <mxGeometry x="160" y="1646" width="100" height="30" as="geometry" />
        </mxCell>
        <mxCell id="CgrZ7WxuLpIuJzu3LAh--99" value="&lt;b&gt;&lt;u&gt;Exam_name&lt;/u&gt;&lt;/b&gt;" style="whiteSpace=wrap;html=1;align=center;" parent="1" vertex="1">
          <mxGeometry x="261" y="1646" width="100" height="30" as="geometry" />
        </mxCell>
        <mxCell id="CgrZ7WxuLpIuJzu3LAh--100" value="&lt;span style=&quot;font-size: 18px;&quot;&gt;EXAM_SUBJECT&lt;/span&gt;" style="text;html=1;whiteSpace=wrap;strokeColor=none;fillColor=none;align=center;verticalAlign=middle;rounded=0;" parent="1" vertex="1">
          <mxGeometry x="180" y="1700" width="100" height="30" as="geometry" />
        </mxCell>
        <mxCell id="Z2Ysq-v7f8SYOui31A2H-19" style="edgeStyle=orthogonalEdgeStyle;rounded=0;orthogonalLoop=1;jettySize=auto;html=1;exitX=0.5;exitY=0;exitDx=0;exitDy=0;entryX=0.25;entryY=1;entryDx=0;entryDy=0;" edge="1" parent="1" source="CgrZ7WxuLpIuJzu3LAh--101" target="CgrZ7WxuLpIuJzu3LAh--97">
          <mxGeometry relative="1" as="geometry">
            <Array as="points">
              <mxPoint x="211" y="1740" />
              <mxPoint x="140" y="1740" />
              <mxPoint x="140" y="1700" />
              <mxPoint x="185" y="1700" />
            </Array>
          </mxGeometry>
        </mxCell>
        <mxCell id="CgrZ7WxuLpIuJzu3LAh--101" value="&lt;b&gt;&lt;u&gt;Exam_id&lt;/u&gt;&lt;/b&gt;" style="whiteSpace=wrap;html=1;align=center;" parent="1" vertex="1">
          <mxGeometry x="161" y="1751" width="100" height="30" as="geometry" />
        </mxCell>
        <mxCell id="CgrZ7WxuLpIuJzu3LAh--103" value="&lt;b&gt;&lt;u&gt;Sub_code&lt;/u&gt;&lt;/b&gt;" style="whiteSpace=wrap;html=1;align=center;" parent="1" vertex="1">
          <mxGeometry x="261" y="1751" width="100" height="30" as="geometry" />
        </mxCell>
        <mxCell id="CgrZ7WxuLpIuJzu3LAh--104" value="&lt;b&gt;Date&lt;/b&gt;" style="whiteSpace=wrap;html=1;align=center;" parent="1" vertex="1">
          <mxGeometry x="361" y="1751" width="120" height="30" as="geometry" />
        </mxCell>
        <mxCell id="CgrZ7WxuLpIuJzu3LAh--110" value="&lt;b&gt;Duration&lt;/b&gt;" style="whiteSpace=wrap;html=1;align=center;" parent="1" vertex="1">
          <mxGeometry x="481" y="1751" width="100" height="30" as="geometry" />
        </mxCell>
        <mxCell id="CgrZ7WxuLpIuJzu3LAh--111" value="&lt;span style=&quot;font-size: 18px;&quot;&gt;STUDENT_EXAM&lt;/span&gt;" style="text;html=1;whiteSpace=wrap;strokeColor=none;fillColor=none;align=center;verticalAlign=middle;rounded=0;" parent="1" vertex="1">
          <mxGeometry x="180" y="1784" width="100" height="30" as="geometry" />
        </mxCell>
        <mxCell id="Z2Ysq-v7f8SYOui31A2H-16" style="edgeStyle=orthogonalEdgeStyle;rounded=0;orthogonalLoop=1;jettySize=auto;html=1;exitX=0.5;exitY=0;exitDx=0;exitDy=0;" edge="1" parent="1">
          <mxGeometry relative="1" as="geometry">
            <mxPoint x="210" y="1899" as="sourcePoint" />
            <mxPoint x="229" y="1140" as="targetPoint" />
            <Array as="points">
              <mxPoint x="210" y="1820" />
              <mxPoint x="1290" y="1820" />
              <mxPoint x="1290" y="1120" />
              <mxPoint x="229" y="1120" />
            </Array>
          </mxGeometry>
        </mxCell>
        <mxCell id="CgrZ7WxuLpIuJzu3LAh--112" value="&lt;b&gt;&lt;u&gt;Reg_no&lt;/u&gt;&lt;/b&gt;" style="whiteSpace=wrap;html=1;align=center;" parent="1" vertex="1">
          <mxGeometry x="161" y="1835" width="110" height="30" as="geometry" />
        </mxCell>
        <mxCell id="CgrZ7WxuLpIuJzu3LAh--115" value="&lt;b&gt;&lt;u&gt;Exam_id&lt;/u&gt;&lt;/b&gt;" style="whiteSpace=wrap;html=1;align=center;" parent="1" vertex="1">
          <mxGeometry x="270" y="1835" width="110" height="30" as="geometry" />
        </mxCell>
        <mxCell id="CgrZ7WxuLpIuJzu3LAh--116" value="&lt;b&gt;Sub_id&lt;/b&gt;" style="whiteSpace=wrap;html=1;align=center;" parent="1" vertex="1">
          <mxGeometry x="380" y="1835" width="100" height="30" as="geometry" />
        </mxCell>
        <mxCell id="CgrZ7WxuLpIuJzu3LAh--117" value="&lt;b&gt;Mark&lt;/b&gt;" style="whiteSpace=wrap;html=1;align=center;" parent="1" vertex="1">
          <mxGeometry x="481" y="1835" width="100" height="30" as="geometry" />
        </mxCell>
        <mxCell id="CgrZ7WxuLpIuJzu3LAh--118" value="&lt;span style=&quot;font-size: 18px;&quot;&gt;MEDICAL&lt;/span&gt;" style="text;html=1;whiteSpace=wrap;strokeColor=none;fillColor=none;align=center;verticalAlign=middle;rounded=0;" parent="1" vertex="1">
          <mxGeometry x="153" y="1874" width="100" height="30" as="geometry" />
        </mxCell>
        <mxCell id="CgrZ7WxuLpIuJzu3LAh--120" value="&lt;b&gt;&lt;u&gt;Med_id&lt;/u&gt;&lt;/b&gt;" style="whiteSpace=wrap;html=1;align=center;" parent="1" vertex="1">
          <mxGeometry x="161" y="1904" width="110" height="30" as="geometry" />
        </mxCell>
        <mxCell id="CgrZ7WxuLpIuJzu3LAh--125" value="&lt;b&gt;Start_date&lt;/b&gt;" style="whiteSpace=wrap;html=1;align=center;" parent="1" vertex="1">
          <mxGeometry x="271" y="1904" width="110" height="30" as="geometry" />
        </mxCell>
        <mxCell id="CgrZ7WxuLpIuJzu3LAh--126" value="&lt;b&gt;End_date&lt;/b&gt;" style="whiteSpace=wrap;html=1;align=center;" parent="1" vertex="1">
          <mxGeometry x="381" y="1904" width="110" height="30" as="geometry" />
        </mxCell>
        <mxCell id="CgrZ7WxuLpIuJzu3LAh--127" value="Submitted_date" style="whiteSpace=wrap;html=1;align=center;" parent="1" vertex="1">
          <mxGeometry x="491" y="1904" width="110" height="30" as="geometry" />
        </mxCell>
        <mxCell id="CgrZ7WxuLpIuJzu3LAh--128" value="&lt;b&gt;Status&lt;/b&gt;" style="whiteSpace=wrap;html=1;align=center;" parent="1" vertex="1">
          <mxGeometry x="601" y="1904" width="110" height="30" as="geometry" />
        </mxCell>
        <mxCell id="CgrZ7WxuLpIuJzu3LAh--138" value="&lt;b&gt;Reason&lt;/b&gt;" style="whiteSpace=wrap;html=1;align=center;" parent="1" vertex="1">
          <mxGeometry x="711" y="1904" width="110" height="30" as="geometry" />
        </mxCell>
        <mxCell id="CgrZ7WxuLpIuJzu3LAh--139" value="&lt;b&gt;Approved_by&lt;/b&gt;" style="whiteSpace=wrap;html=1;align=center;" parent="1" vertex="1">
          <mxGeometry x="821" y="1904" width="110" height="30" as="geometry" />
        </mxCell>
        <mxCell id="CgrZ7WxuLpIuJzu3LAh--140" value="&lt;b&gt;Reg_no&lt;/b&gt;" style="whiteSpace=wrap;html=1;align=center;" parent="1" vertex="1">
          <mxGeometry x="931" y="1904" width="110" height="30" as="geometry" />
        </mxCell>
        <mxCell id="CgrZ7WxuLpIuJzu3LAh--141" value="&lt;span style=&quot;font-size: 18px;&quot;&gt;SPORTS&lt;/span&gt;" style="text;html=1;whiteSpace=wrap;strokeColor=none;fillColor=none;align=center;verticalAlign=middle;rounded=0;" parent="1" vertex="1">
          <mxGeometry x="149" y="1945" width="100" height="30" as="geometry" />
        </mxCell>
        <mxCell id="CgrZ7WxuLpIuJzu3LAh--142" value="&lt;b&gt;&lt;u&gt;Sport_id&lt;/u&gt;&lt;/b&gt;" style="whiteSpace=wrap;html=1;align=center;" parent="1" vertex="1">
          <mxGeometry x="161" y="1980" width="110" height="30" as="geometry" />
        </mxCell>
        <mxCell id="CgrZ7WxuLpIuJzu3LAh--143" value="&lt;b&gt;Sport_name&lt;/b&gt;" style="whiteSpace=wrap;html=1;align=center;" parent="1" vertex="1">
          <mxGeometry x="271" y="1980" width="110" height="30" as="geometry" />
        </mxCell>
        <mxCell id="CgrZ7WxuLpIuJzu3LAh--145" value="&lt;span style=&quot;font-size: 18px;&quot;&gt;STUDENT_SPORT&lt;/span&gt;" style="text;html=1;whiteSpace=wrap;strokeColor=none;fillColor=none;align=center;verticalAlign=middle;rounded=0;" parent="1" vertex="1">
          <mxGeometry x="190" y="2015" width="100" height="30" as="geometry" />
        </mxCell>
        <mxCell id="Z2Ysq-v7f8SYOui31A2H-23" style="edgeStyle=orthogonalEdgeStyle;rounded=0;orthogonalLoop=1;jettySize=auto;html=1;exitX=0.5;exitY=0;exitDx=0;exitDy=0;entryX=0;entryY=0.75;entryDx=0;entryDy=0;" edge="1" parent="1" source="CgrZ7WxuLpIuJzu3LAh--146" target="CgrZ7WxuLpIuJzu3LAh--66">
          <mxGeometry relative="1" as="geometry">
            <Array as="points">
              <mxPoint x="216" y="2050" />
              <mxPoint x="120" y="2050" />
              <mxPoint x="120" y="1160" />
              <mxPoint x="150" y="1160" />
              <mxPoint x="150" y="1159" />
            </Array>
          </mxGeometry>
        </mxCell>
        <mxCell id="CgrZ7WxuLpIuJzu3LAh--146" value="&lt;b&gt;&lt;u&gt;Reg_no&lt;/u&gt;&lt;/b&gt;" style="whiteSpace=wrap;html=1;align=center;" parent="1" vertex="1">
          <mxGeometry x="161" y="2063" width="110" height="30" as="geometry" />
        </mxCell>
        <mxCell id="CgrZ7WxuLpIuJzu3LAh--147" value="&lt;b&gt;&lt;u&gt;Sport_id&lt;/u&gt;&lt;/b&gt;" style="whiteSpace=wrap;html=1;align=center;" parent="1" vertex="1">
          <mxGeometry x="271" y="2063" width="110" height="30" as="geometry" />
        </mxCell>
        <mxCell id="CgrZ7WxuLpIuJzu3LAh--148" value="&lt;b&gt;colours&lt;/b&gt;" style="whiteSpace=wrap;html=1;align=center;" parent="1" vertex="1">
          <mxGeometry x="381" y="2063" width="110" height="30" as="geometry" />
        </mxCell>
        <mxCell id="CgrZ7WxuLpIuJzu3LAh--149" value="&lt;span style=&quot;font-size: 18px;&quot;&gt;SESSION&lt;/span&gt;" style="text;html=1;whiteSpace=wrap;strokeColor=none;fillColor=none;align=center;verticalAlign=middle;rounded=0;" parent="1" vertex="1">
          <mxGeometry x="150" y="2098" width="100" height="30" as="geometry" />
        </mxCell>
        <mxCell id="f70sQ9PuRMg3AtjfcJkW-1" value="&lt;b&gt;&lt;u&gt;Session_id&lt;/u&gt;&lt;/b&gt;" style="whiteSpace=wrap;html=1;align=center;" parent="1" vertex="1">
          <mxGeometry x="161" y="2138" width="110" height="30" as="geometry" />
        </mxCell>
        <mxCell id="-_VpLG-gP_l9ovldw-cs-1" value="&lt;b&gt;Fac_id&lt;/b&gt;" style="whiteSpace=wrap;html=1;align=center;" parent="1" vertex="1">
          <mxGeometry x="1050" y="380" width="100" height="30" as="geometry" />
        </mxCell>
        <mxCell id="-_VpLG-gP_l9ovldw-cs-2" value="&lt;b&gt;Enroll_date&lt;/b&gt;" style="whiteSpace=wrap;html=1;align=center;" parent="1" vertex="1">
          <mxGeometry x="361" y="1577" width="100" height="30" as="geometry" />
        </mxCell>
        <mxCell id="-_VpLG-gP_l9ovldw-cs-3" value="&lt;b&gt;Session_name&lt;/b&gt;" style="whiteSpace=wrap;html=1;align=center;" parent="1" vertex="1">
          <mxGeometry x="271" y="2138" width="100" height="30" as="geometry" />
        </mxCell>
        <mxCell id="-_VpLG-gP_l9ovldw-cs-7" value="&lt;b&gt;Hour&lt;/b&gt;" style="whiteSpace=wrap;html=1;align=center;" parent="1" vertex="1">
          <mxGeometry x="371" y="2138" width="100" height="30" as="geometry" />
        </mxCell>
        <mxCell id="-_VpLG-gP_l9ovldw-cs-8" value="&lt;b&gt;Lec_id&lt;/b&gt;" style="whiteSpace=wrap;html=1;align=center;" parent="1" vertex="1">
          <mxGeometry x="471" y="2138" width="100" height="30" as="geometry" />
        </mxCell>
        <mxCell id="Z2Ysq-v7f8SYOui31A2H-21" style="edgeStyle=orthogonalEdgeStyle;rounded=0;orthogonalLoop=1;jettySize=auto;html=1;exitX=0.5;exitY=0;exitDx=0;exitDy=0;entryX=0.5;entryY=1;entryDx=0;entryDy=0;" edge="1" parent="1" source="-_VpLG-gP_l9ovldw-cs-9" target="CgrZ7WxuLpIuJzu3LAh--88">
          <mxGeometry relative="1" as="geometry">
            <Array as="points">
              <mxPoint x="621" y="2076" />
              <mxPoint x="1220" y="2076" />
              <mxPoint x="1220" y="1763" />
              <mxPoint x="950" y="1763" />
              <mxPoint x="950" y="1520" />
              <mxPoint x="311" y="1520" />
            </Array>
          </mxGeometry>
        </mxCell>
        <mxCell id="-_VpLG-gP_l9ovldw-cs-9" value="&lt;b&gt;Sub_code&lt;/b&gt;" style="whiteSpace=wrap;html=1;align=center;" parent="1" vertex="1">
          <mxGeometry x="571" y="2138" width="100" height="30" as="geometry" />
        </mxCell>
        <mxCell id="-_VpLG-gP_l9ovldw-cs-10" value="&lt;span style=&quot;font-size: 18px;&quot;&gt;STUDENT_SESSION&lt;/span&gt;" style="text;html=1;whiteSpace=wrap;strokeColor=none;fillColor=none;align=center;verticalAlign=middle;rounded=0;" parent="1" vertex="1">
          <mxGeometry x="198" y="2178" width="100" height="30" as="geometry" />
        </mxCell>
        <mxCell id="-_VpLG-gP_l9ovldw-cs-11" value="&lt;b&gt;&lt;u&gt;Session_id&lt;/u&gt;&lt;/b&gt;" style="whiteSpace=wrap;html=1;align=center;" parent="1" vertex="1">
          <mxGeometry x="160" y="2219" width="110" height="30" as="geometry" />
        </mxCell>
        <mxCell id="-_VpLG-gP_l9ovldw-cs-12" value="&lt;b&gt;&lt;u&gt;Reg_no&lt;/u&gt;&lt;/b&gt;" style="whiteSpace=wrap;html=1;align=center;" parent="1" vertex="1">
          <mxGeometry x="271" y="2219" width="110" height="30" as="geometry" />
        </mxCell>
        <mxCell id="-_VpLG-gP_l9ovldw-cs-13" value="&lt;b&gt;&lt;u&gt;Sub_code&lt;/u&gt;&lt;/b&gt;" style="whiteSpace=wrap;html=1;align=center;" parent="1" vertex="1">
          <mxGeometry x="381" y="2219" width="110" height="30" as="geometry" />
        </mxCell>
        <mxCell id="-_VpLG-gP_l9ovldw-cs-14" value="&lt;b&gt;Status&lt;/b&gt;" style="whiteSpace=wrap;html=1;align=center;" parent="1" vertex="1">
          <mxGeometry x="491" y="2219" width="100" height="30" as="geometry" />
        </mxCell>
        <mxCell id="-_VpLG-gP_l9ovldw-cs-15" value="&lt;span style=&quot;font-size: 18px;&quot;&gt;NON_ACADEMIC_STAFF&lt;/span&gt;" style="text;html=1;whiteSpace=wrap;strokeColor=none;fillColor=none;align=center;verticalAlign=middle;rounded=0;" parent="1" vertex="1">
          <mxGeometry x="220" y="2255" width="100" height="30" as="geometry" />
        </mxCell>
        <mxCell id="-_VpLG-gP_l9ovldw-cs-16" value="&lt;b&gt;&lt;u&gt;Nac_staff_id&lt;/u&gt;&lt;/b&gt;" style="whiteSpace=wrap;html=1;align=center;" parent="1" vertex="1">
          <mxGeometry x="160" y="2287" width="110" height="30" as="geometry" />
        </mxCell>
        <mxCell id="-_VpLG-gP_l9ovldw-cs-17" value="&lt;b&gt;F_name&lt;/b&gt;" style="whiteSpace=wrap;html=1;align=center;" parent="1" vertex="1">
          <mxGeometry x="271" y="2287" width="110" height="30" as="geometry" />
        </mxCell>
        <mxCell id="-_VpLG-gP_l9ovldw-cs-18" value="&lt;b&gt;L_name&lt;/b&gt;" style="whiteSpace=wrap;html=1;align=center;" parent="1" vertex="1">
          <mxGeometry x="381" y="2287" width="100" height="30" as="geometry" />
        </mxCell>
        <mxCell id="-_VpLG-gP_l9ovldw-cs-19" value="&lt;b&gt;Gender&lt;/b&gt;" style="whiteSpace=wrap;html=1;align=center;" parent="1" vertex="1">
          <mxGeometry x="481" y="2287" width="100" height="30" as="geometry" />
        </mxCell>
        <mxCell id="-_VpLG-gP_l9ovldw-cs-20" value="&lt;b&gt;Address&lt;/b&gt;" style="whiteSpace=wrap;html=1;align=center;" parent="1" vertex="1">
          <mxGeometry x="581" y="2287" width="100" height="30" as="geometry" />
        </mxCell>
        <mxCell id="-_VpLG-gP_l9ovldw-cs-21" value="&lt;b&gt;NIC&lt;/b&gt;" style="whiteSpace=wrap;html=1;align=center;" parent="1" vertex="1">
          <mxGeometry x="681" y="2287" width="100" height="30" as="geometry" />
        </mxCell>
        <mxCell id="-_VpLG-gP_l9ovldw-cs-22" value="&lt;b&gt;E-mail&lt;/b&gt;" style="whiteSpace=wrap;html=1;align=center;" parent="1" vertex="1">
          <mxGeometry x="781" y="2287" width="100" height="30" as="geometry" />
        </mxCell>
        <mxCell id="-_VpLG-gP_l9ovldw-cs-23" value="&lt;b&gt;Status&lt;/b&gt;" style="whiteSpace=wrap;html=1;align=center;" parent="1" vertex="1">
          <mxGeometry x="881" y="2287" width="100" height="30" as="geometry" />
        </mxCell>
        <mxCell id="-_VpLG-gP_l9ovldw-cs-24" value="&lt;b&gt;Appoint_date&lt;/b&gt;" style="whiteSpace=wrap;html=1;align=center;" parent="1" vertex="1">
          <mxGeometry x="981" y="2287" width="100" height="30" as="geometry" />
        </mxCell>
        <mxCell id="Z2Ysq-v7f8SYOui31A2H-22" style="edgeStyle=orthogonalEdgeStyle;rounded=0;orthogonalLoop=1;jettySize=auto;html=1;exitX=0.5;exitY=0;exitDx=0;exitDy=0;entryX=0.75;entryY=0;entryDx=0;entryDy=0;" edge="1" parent="1" source="-_VpLG-gP_l9ovldw-cs-25" target="CgrZ7WxuLpIuJzu3LAh--15">
          <mxGeometry relative="1" as="geometry">
            <Array as="points">
              <mxPoint x="1131" y="2240" />
              <mxPoint x="1430" y="2240" />
              <mxPoint x="1430" y="130" />
              <mxPoint x="235" y="130" />
            </Array>
          </mxGeometry>
        </mxCell>
        <mxCell id="-_VpLG-gP_l9ovldw-cs-25" value="&lt;b&gt;Fac_id&lt;/b&gt;" style="whiteSpace=wrap;html=1;align=center;" parent="1" vertex="1">
          <mxGeometry x="1081" y="2287" width="100" height="30" as="geometry" />
        </mxCell>
        <mxCell id="-_VpLG-gP_l9ovldw-cs-26" value="&lt;span style=&quot;font-size: 18px;&quot;&gt;NON_ACADEMIC_CONTUCT&lt;/span&gt;" style="text;html=1;whiteSpace=wrap;strokeColor=none;fillColor=none;align=center;verticalAlign=middle;rounded=0;" parent="1" vertex="1">
          <mxGeometry x="229" y="2345" width="100" height="30" as="geometry" />
        </mxCell>
        <mxCell id="Z2Ysq-v7f8SYOui31A2H-26" style="edgeStyle=orthogonalEdgeStyle;rounded=0;orthogonalLoop=1;jettySize=auto;html=1;exitX=0.5;exitY=0;exitDx=0;exitDy=0;entryX=0.5;entryY=1;entryDx=0;entryDy=0;" edge="1" parent="1" source="-_VpLG-gP_l9ovldw-cs-27" target="-_VpLG-gP_l9ovldw-cs-16">
          <mxGeometry relative="1" as="geometry">
            <Array as="points">
              <mxPoint x="214" y="2380" />
              <mxPoint x="120" y="2380" />
              <mxPoint x="120" y="2340" />
              <mxPoint x="215" y="2340" />
            </Array>
          </mxGeometry>
        </mxCell>
        <mxCell id="-_VpLG-gP_l9ovldw-cs-27" value="&lt;b&gt;&lt;u&gt;Nac_staff_id&lt;/u&gt;&lt;/b&gt;" style="whiteSpace=wrap;html=1;align=center;" parent="1" vertex="1">
          <mxGeometry x="159" y="2395" width="110" height="30" as="geometry" />
        </mxCell>
        <mxCell id="-_VpLG-gP_l9ovldw-cs-28" value="&lt;b&gt;&lt;u&gt;Contuct_no&lt;/u&gt;&lt;/b&gt;" style="whiteSpace=wrap;html=1;align=center;" parent="1" vertex="1">
          <mxGeometry x="269" y="2395" width="110" height="30" as="geometry" />
        </mxCell>
        <mxCell id="-_VpLG-gP_l9ovldw-cs-29" value="&lt;span style=&quot;font-size: 18px;&quot;&gt;SECURITY&lt;/span&gt;" style="text;html=1;whiteSpace=wrap;strokeColor=none;fillColor=none;align=center;verticalAlign=middle;rounded=0;" parent="1" vertex="1">
          <mxGeometry x="160" y="2448" width="100" height="30" as="geometry" />
        </mxCell>
        <mxCell id="-_VpLG-gP_l9ovldw-cs-30" value="&lt;b&gt;&lt;u&gt;Sec_id&lt;/u&gt;&lt;/b&gt;" style="whiteSpace=wrap;html=1;align=center;" parent="1" vertex="1">
          <mxGeometry x="160" y="2488" width="110" height="30" as="geometry" />
        </mxCell>
        <mxCell id="-_VpLG-gP_l9ovldw-cs-31" value="&lt;b&gt;Work_shift&lt;/b&gt;" style="whiteSpace=wrap;html=1;align=center;" parent="1" vertex="1">
          <mxGeometry x="271" y="2488" width="110" height="30" as="geometry" />
        </mxCell>
        <mxCell id="-_VpLG-gP_l9ovldw-cs-32" value="&lt;b&gt;Duty_area&lt;/b&gt;" style="whiteSpace=wrap;html=1;align=center;" parent="1" vertex="1">
          <mxGeometry x="381" y="2488" width="110" height="30" as="geometry" />
        </mxCell>
        <mxCell id="-_VpLG-gP_l9ovldw-cs-34" value="&lt;span style=&quot;font-size: 18px;&quot;&gt;CLEANER&lt;/span&gt;" style="text;html=1;whiteSpace=wrap;strokeColor=none;fillColor=none;align=center;verticalAlign=middle;rounded=0;" parent="1" vertex="1">
          <mxGeometry x="160" y="2528" width="100" height="30" as="geometry" />
        </mxCell>
        <mxCell id="-_VpLG-gP_l9ovldw-cs-35" value="&lt;b&gt;&lt;u&gt;Cleaner_id&lt;/u&gt;&lt;/b&gt;" style="whiteSpace=wrap;html=1;align=center;" parent="1" vertex="1">
          <mxGeometry x="161" y="2568" width="110" height="30" as="geometry" />
        </mxCell>
        <mxCell id="-_VpLG-gP_l9ovldw-cs-36" value="&lt;b&gt;Work_shift&lt;/b&gt;" style="whiteSpace=wrap;html=1;align=center;" parent="1" vertex="1">
          <mxGeometry x="271" y="2568" width="110" height="30" as="geometry" />
        </mxCell>
        <mxCell id="-_VpLG-gP_l9ovldw-cs-37" value="&lt;b&gt;Assigned_area&lt;/b&gt;" style="whiteSpace=wrap;html=1;align=center;" parent="1" vertex="1">
          <mxGeometry x="381" y="2568" width="110" height="30" as="geometry" />
        </mxCell>
        <mxCell id="-_VpLG-gP_l9ovldw-cs-38" value="&lt;span style=&quot;font-size: 18px;&quot;&gt;ADMINISTRATIVE&lt;/span&gt;" style="text;html=1;whiteSpace=wrap;strokeColor=none;fillColor=none;align=center;verticalAlign=middle;rounded=0;" parent="1" vertex="1">
          <mxGeometry x="186" y="2608" width="100" height="30" as="geometry" />
        </mxCell>
        <mxCell id="-_VpLG-gP_l9ovldw-cs-39" value="&lt;b&gt;&lt;u&gt;Ad_id&lt;/u&gt;&lt;/b&gt;" style="whiteSpace=wrap;html=1;align=center;" parent="1" vertex="1">
          <mxGeometry x="161" y="2648" width="110" height="30" as="geometry" />
        </mxCell>
        <mxCell id="-_VpLG-gP_l9ovldw-cs-40" value="&lt;b&gt;Office_room&lt;/b&gt;" style="whiteSpace=wrap;html=1;align=center;" parent="1" vertex="1">
          <mxGeometry x="271" y="2648" width="110" height="30" as="geometry" />
        </mxCell>
        <mxCell id="-_VpLG-gP_l9ovldw-cs-41" value="&lt;span style=&quot;font-size: 18px;&quot;&gt;TECH_OFFICER&lt;/span&gt;" style="text;html=1;whiteSpace=wrap;strokeColor=none;fillColor=none;align=center;verticalAlign=middle;rounded=0;" parent="1" vertex="1">
          <mxGeometry x="180" y="2688" width="100" height="30" as="geometry" />
        </mxCell>
        <mxCell id="-_VpLG-gP_l9ovldw-cs-43" value="&lt;b&gt;&lt;u&gt;To_id&lt;/u&gt;&lt;/b&gt;" style="whiteSpace=wrap;html=1;align=center;" parent="1" vertex="1">
          <mxGeometry x="161" y="2728" width="110" height="30" as="geometry" />
        </mxCell>
        <mxCell id="-_VpLG-gP_l9ovldw-cs-44" value="&lt;b&gt;Lab_assigned&lt;/b&gt;" style="whiteSpace=wrap;html=1;align=center;" parent="1" vertex="1">
          <mxGeometry x="271" y="2728" width="110" height="30" as="geometry" />
        </mxCell>
        <mxCell id="-_VpLG-gP_l9ovldw-cs-45" value="&lt;span style=&quot;font-size: 18px;&quot;&gt;MID_THEORY&lt;/span&gt;" style="text;html=1;whiteSpace=wrap;strokeColor=none;fillColor=none;align=center;verticalAlign=middle;rounded=0;" parent="1" vertex="1">
          <mxGeometry x="170" y="2799" width="100" height="30" as="geometry" />
        </mxCell>
        <mxCell id="-_VpLG-gP_l9ovldw-cs-46" value="&lt;b&gt;&lt;u&gt;MT_code&lt;/u&gt;&lt;/b&gt;" style="whiteSpace=wrap;html=1;align=center;" parent="1" vertex="1">
          <mxGeometry x="160" y="2836" width="110" height="30" as="geometry" />
        </mxCell>
        <mxCell id="-_VpLG-gP_l9ovldw-cs-47" value="&lt;span style=&quot;font-size: 18px;&quot;&gt;MID_PRACTICAL&lt;/span&gt;" style="text;html=1;whiteSpace=wrap;strokeColor=none;fillColor=none;align=center;verticalAlign=middle;rounded=0;" parent="1" vertex="1">
          <mxGeometry x="180" y="2878" width="100" height="30" as="geometry" />
        </mxCell>
        <mxCell id="-_VpLG-gP_l9ovldw-cs-48" value="&lt;b&gt;&lt;u&gt;MP_code&lt;/u&gt;&lt;/b&gt;" style="whiteSpace=wrap;html=1;align=center;" parent="1" vertex="1">
          <mxGeometry x="161" y="2917" width="110" height="30" as="geometry" />
        </mxCell>
        <mxCell id="-_VpLG-gP_l9ovldw-cs-49" value="&lt;span style=&quot;font-size: 18px;&quot;&gt;QUIZ&lt;/span&gt;" style="text;html=1;whiteSpace=wrap;strokeColor=none;fillColor=none;align=center;verticalAlign=middle;rounded=0;" parent="1" vertex="1">
          <mxGeometry x="131" y="2956" width="100" height="30" as="geometry" />
        </mxCell>
        <mxCell id="-_VpLG-gP_l9ovldw-cs-50" value="&lt;b&gt;&lt;u&gt;Q_code&lt;/u&gt;&lt;/b&gt;" style="whiteSpace=wrap;html=1;align=center;" parent="1" vertex="1">
          <mxGeometry x="161" y="2988" width="110" height="30" as="geometry" />
        </mxCell>
        <mxCell id="-_VpLG-gP_l9ovldw-cs-51" value="&lt;span style=&quot;font-size: 18px;&quot;&gt;END_THEORY&lt;/span&gt;" style="text;html=1;whiteSpace=wrap;strokeColor=none;fillColor=none;align=center;verticalAlign=middle;rounded=0;" parent="1" vertex="1">
          <mxGeometry x="171" y="3029" width="100" height="30" as="geometry" />
        </mxCell>
        <mxCell id="-_VpLG-gP_l9ovldw-cs-52" value="&lt;b&gt;&lt;u&gt;ET_code&lt;/u&gt;&lt;/b&gt;" style="whiteSpace=wrap;html=1;align=center;" parent="1" vertex="1">
          <mxGeometry x="161" y="3066" width="110" height="30" as="geometry" />
        </mxCell>
        <mxCell id="-_VpLG-gP_l9ovldw-cs-53" value="&lt;span style=&quot;font-size: 18px;&quot;&gt;END_PRACTICAL&lt;/span&gt;" style="text;html=1;whiteSpace=wrap;strokeColor=none;fillColor=none;align=center;verticalAlign=middle;rounded=0;" parent="1" vertex="1">
          <mxGeometry x="186" y="3109" width="100" height="30" as="geometry" />
        </mxCell>
        <mxCell id="-_VpLG-gP_l9ovldw-cs-54" value="&lt;b&gt;&lt;u&gt;EP_code&lt;/u&gt;&lt;/b&gt;" style="whiteSpace=wrap;html=1;align=center;" parent="1" vertex="1">
          <mxGeometry x="161" y="3146" width="110" height="30" as="geometry" />
        </mxCell>
        <mxCell id="-_VpLG-gP_l9ovldw-cs-55" value="&lt;span style=&quot;font-size: 18px;&quot;&gt;REL_ACADAMIC&lt;/span&gt;" style="text;html=1;whiteSpace=wrap;strokeColor=none;fillColor=none;align=center;verticalAlign=middle;rounded=0;" parent="1" vertex="1">
          <mxGeometry x="180" y="3192" width="100" height="30" as="geometry" />
        </mxCell>
        <mxCell id="-_VpLG-gP_l9ovldw-cs-56" value="&lt;b&gt;&lt;u&gt;Staff_id&lt;/u&gt;&lt;/b&gt;" style="whiteSpace=wrap;html=1;align=center;" parent="1" vertex="1">
          <mxGeometry x="156" y="3246" width="110" height="30" as="geometry" />
        </mxCell>
        <mxCell id="-_VpLG-gP_l9ovldw-cs-57" value="&lt;b&gt;&lt;u&gt;NIC&lt;/u&gt;&lt;/b&gt;" style="whiteSpace=wrap;html=1;align=center;" parent="1" vertex="1">
          <mxGeometry x="265" y="3246" width="94" height="30" as="geometry" />
        </mxCell>
        <mxCell id="-_VpLG-gP_l9ovldw-cs-58" value="&lt;b&gt;Address&lt;/b&gt;" style="whiteSpace=wrap;html=1;align=center;" parent="1" vertex="1">
          <mxGeometry x="360" y="3246" width="84" height="30" as="geometry" />
        </mxCell>
        <mxCell id="-_VpLG-gP_l9ovldw-cs-59" value="&lt;b&gt;Rel_name&lt;/b&gt;" style="whiteSpace=wrap;html=1;align=center;" parent="1" vertex="1">
          <mxGeometry x="444" y="3246" width="110" height="30" as="geometry" />
        </mxCell>
        <mxCell id="-_VpLG-gP_l9ovldw-cs-60" value="&lt;b&gt;Gender&lt;/b&gt;" style="whiteSpace=wrap;html=1;align=center;" parent="1" vertex="1">
          <mxGeometry x="555" y="3246" width="110" height="30" as="geometry" />
        </mxCell>
        <mxCell id="-_VpLG-gP_l9ovldw-cs-61" value="&lt;b&gt;Relationship&lt;/b&gt;" style="whiteSpace=wrap;html=1;align=center;" parent="1" vertex="1">
          <mxGeometry x="665" y="3246" width="110" height="30" as="geometry" />
        </mxCell>
        <mxCell id="-_VpLG-gP_l9ovldw-cs-62" value="&lt;span style=&quot;font-size: 18px;&quot;&gt;REL_NON_ACADAMIC&lt;/span&gt;" style="text;html=1;whiteSpace=wrap;strokeColor=none;fillColor=none;align=center;verticalAlign=middle;rounded=0;" parent="1" vertex="1">
          <mxGeometry x="200" y="3291" width="100" height="30" as="geometry" />
        </mxCell>
        <mxCell id="-_VpLG-gP_l9ovldw-cs-63" value="&lt;b&gt;&lt;u&gt;Nac_staff_id&lt;/u&gt;&lt;/b&gt;" style="whiteSpace=wrap;html=1;align=center;" parent="1" vertex="1">
          <mxGeometry x="160" y="3341" width="110" height="30" as="geometry" />
        </mxCell>
        <mxCell id="-_VpLG-gP_l9ovldw-cs-64" value="&lt;b&gt;&lt;u&gt;NIC&lt;/u&gt;&lt;/b&gt;" style="whiteSpace=wrap;html=1;align=center;" parent="1" vertex="1">
          <mxGeometry x="270" y="3341" width="89" height="30" as="geometry" />
        </mxCell>
        <mxCell id="-_VpLG-gP_l9ovldw-cs-80" style="edgeStyle=orthogonalEdgeStyle;rounded=0;orthogonalLoop=1;jettySize=auto;html=1;exitX=0;exitY=0.75;exitDx=0;exitDy=0;entryX=1;entryY=0.75;entryDx=0;entryDy=0;" parent="1" source="-_VpLG-gP_l9ovldw-cs-65" target="-_VpLG-gP_l9ovldw-cs-64" edge="1">
          <mxGeometry relative="1" as="geometry" />
        </mxCell>
        <mxCell id="-_VpLG-gP_l9ovldw-cs-65" value="&lt;b&gt;Address&lt;/b&gt;" style="whiteSpace=wrap;html=1;align=center;" parent="1" vertex="1">
          <mxGeometry x="360.5" y="3341" width="99" height="30" as="geometry" />
        </mxCell>
        <mxCell id="-_VpLG-gP_l9ovldw-cs-66" value="&lt;b&gt;Rel_name&lt;/b&gt;" style="whiteSpace=wrap;html=1;align=center;" parent="1" vertex="1">
          <mxGeometry x="461" y="3341" width="90" height="30" as="geometry" />
        </mxCell>
        <mxCell id="-_VpLG-gP_l9ovldw-cs-67" value="&lt;b&gt;Gender&lt;/b&gt;" style="whiteSpace=wrap;html=1;align=center;" parent="1" vertex="1">
          <mxGeometry x="550" y="3341" width="110" height="30" as="geometry" />
        </mxCell>
        <mxCell id="-_VpLG-gP_l9ovldw-cs-68" value="&lt;b&gt;Relationship&lt;/b&gt;" style="whiteSpace=wrap;html=1;align=center;" parent="1" vertex="1">
          <mxGeometry x="660" y="3341" width="110" height="30" as="geometry" />
        </mxCell>
        <mxCell id="-_VpLG-gP_l9ovldw-cs-69" value="&lt;span style=&quot;font-size: 18px;&quot;&gt;LECTURER_SUBJECT&lt;/span&gt;" style="text;html=1;whiteSpace=wrap;strokeColor=none;fillColor=none;align=center;verticalAlign=middle;rounded=0;" parent="1" vertex="1">
          <mxGeometry x="210" y="3394" width="100" height="30" as="geometry" />
        </mxCell>
        <mxCell id="Z2Ysq-v7f8SYOui31A2H-29" style="edgeStyle=orthogonalEdgeStyle;rounded=0;orthogonalLoop=1;jettySize=auto;html=1;exitX=0.5;exitY=0;exitDx=0;exitDy=0;entryX=0.5;entryY=1;entryDx=0;entryDy=0;" edge="1" parent="1" source="-_VpLG-gP_l9ovldw-cs-71">
          <mxGeometry relative="1" as="geometry">
            <mxPoint x="190" y="3346" as="sourcePoint" />
            <mxPoint x="184" y="750" as="targetPoint" />
            <Array as="points">
              <mxPoint x="216" y="3430" />
              <mxPoint x="60" y="3430" />
              <mxPoint x="60" y="770" />
              <mxPoint x="184" y="770" />
            </Array>
          </mxGeometry>
        </mxCell>
        <mxCell id="-_VpLG-gP_l9ovldw-cs-71" value="&lt;b&gt;&lt;u&gt;Lec_id&lt;/u&gt;&lt;/b&gt;" style="whiteSpace=wrap;html=1;align=center;" parent="1" vertex="1">
          <mxGeometry x="161" y="3444" width="110" height="30" as="geometry" />
        </mxCell>
        <mxCell id="Z2Ysq-v7f8SYOui31A2H-30" style="edgeStyle=orthogonalEdgeStyle;rounded=0;orthogonalLoop=1;jettySize=auto;html=1;exitX=0.5;exitY=0;exitDx=0;exitDy=0;entryX=0.75;entryY=1;entryDx=0;entryDy=0;" edge="1" parent="1" source="-_VpLG-gP_l9ovldw-cs-72" target="CgrZ7WxuLpIuJzu3LAh--81">
          <mxGeometry relative="1" as="geometry">
            <Array as="points">
              <mxPoint x="326" y="3430" />
              <mxPoint x="1510" y="3430" />
              <mxPoint x="1510" y="1410" />
              <mxPoint x="235" y="1410" />
            </Array>
          </mxGeometry>
        </mxCell>
        <mxCell id="-_VpLG-gP_l9ovldw-cs-72" value="&lt;b&gt;&lt;u&gt;Sub_code&lt;/u&gt;&lt;/b&gt;" style="whiteSpace=wrap;html=1;align=center;" parent="1" vertex="1">
          <mxGeometry x="271" y="3444" width="110" height="30" as="geometry" />
        </mxCell>
        <mxCell id="-_VpLG-gP_l9ovldw-cs-73" value="&lt;span style=&quot;font-size: 18px;&quot;&gt;GUARDIAN_FOR_STUDENT&lt;/span&gt;" style="text;html=1;whiteSpace=wrap;strokeColor=none;fillColor=none;align=center;verticalAlign=middle;rounded=0;" parent="1" vertex="1">
          <mxGeometry x="229" y="3486" width="100" height="30" as="geometry" />
        </mxCell>
        <mxCell id="-_VpLG-gP_l9ovldw-cs-74" value="&lt;b&gt;&lt;u&gt;Reg_no&lt;/u&gt;&lt;/b&gt;" style="whiteSpace=wrap;html=1;align=center;" parent="1" vertex="1">
          <mxGeometry x="160" y="3523" width="110" height="30" as="geometry" />
        </mxCell>
        <mxCell id="-_VpLG-gP_l9ovldw-cs-75" value="&lt;b&gt;&lt;u&gt;NIC&lt;/u&gt;&lt;/b&gt;" style="whiteSpace=wrap;html=1;align=center;" parent="1" vertex="1">
          <mxGeometry x="269" y="3523" width="110" height="30" as="geometry" />
        </mxCell>
        <mxCell id="-_VpLG-gP_l9ovldw-cs-76" value="&lt;b&gt;Address&lt;/b&gt;" style="whiteSpace=wrap;html=1;align=center;" parent="1" vertex="1">
          <mxGeometry x="380" y="3523" width="110" height="30" as="geometry" />
        </mxCell>
        <mxCell id="-_VpLG-gP_l9ovldw-cs-77" value="&lt;b&gt;Rel_name&lt;/b&gt;" style="whiteSpace=wrap;html=1;align=center;" parent="1" vertex="1">
          <mxGeometry x="489" y="3523" width="110" height="30" as="geometry" />
        </mxCell>
        <mxCell id="-_VpLG-gP_l9ovldw-cs-78" value="&lt;b&gt;Gender&lt;/b&gt;" style="whiteSpace=wrap;html=1;align=center;" parent="1" vertex="1">
          <mxGeometry x="599" y="3523" width="89" height="30" as="geometry" />
        </mxCell>
        <mxCell id="-_VpLG-gP_l9ovldw-cs-79" value="&lt;b&gt;Relationship&lt;/b&gt;" style="whiteSpace=wrap;html=1;align=center;" parent="1" vertex="1">
          <mxGeometry x="685" y="3523" width="110" height="30" as="geometry" />
        </mxCell>
        <mxCell id="-_VpLG-gP_l9ovldw-cs-81" value="&lt;span style=&quot;font-size: 18px;&quot;&gt;MARKS&lt;/span&gt;" style="text;html=1;whiteSpace=wrap;strokeColor=none;fillColor=none;align=center;verticalAlign=middle;rounded=0;" parent="1" vertex="1">
          <mxGeometry x="150" y="3569" width="100" height="30" as="geometry" />
        </mxCell>
        <mxCell id="Z2Ysq-v7f8SYOui31A2H-34" style="edgeStyle=orthogonalEdgeStyle;rounded=0;orthogonalLoop=1;jettySize=auto;html=1;exitX=0.5;exitY=1;exitDx=0;exitDy=0;entryX=0.25;entryY=0;entryDx=0;entryDy=0;" edge="1" parent="1" source="-_VpLG-gP_l9ovldw-cs-82" target="CgrZ7WxuLpIuJzu3LAh--66">
          <mxGeometry relative="1" as="geometry">
            <Array as="points">
              <mxPoint x="215" y="3680" />
              <mxPoint x="40" y="3680" />
              <mxPoint x="40" y="1116" />
              <mxPoint x="185" y="1116" />
            </Array>
          </mxGeometry>
        </mxCell>
        <mxCell id="-_VpLG-gP_l9ovldw-cs-82" value="&lt;b&gt;&lt;u&gt;Reg_no&lt;/u&gt;&lt;/b&gt;" style="whiteSpace=wrap;html=1;align=center;" parent="1" vertex="1">
          <mxGeometry x="160" y="3607" width="110" height="30" as="geometry" />
        </mxCell>
        <mxCell id="Z2Ysq-v7f8SYOui31A2H-33" style="edgeStyle=orthogonalEdgeStyle;rounded=0;orthogonalLoop=1;jettySize=auto;html=1;exitX=0.5;exitY=1;exitDx=0;exitDy=0;entryX=0.75;entryY=0;entryDx=0;entryDy=0;" edge="1" parent="1" source="-_VpLG-gP_l9ovldw-cs-83" target="CgrZ7WxuLpIuJzu3LAh--81">
          <mxGeometry relative="1" as="geometry">
            <Array as="points">
              <mxPoint x="326" y="3700" />
              <mxPoint x="1670" y="3700" />
              <mxPoint x="1670" y="1340" />
              <mxPoint x="235" y="1340" />
            </Array>
          </mxGeometry>
        </mxCell>
        <mxCell id="-_VpLG-gP_l9ovldw-cs-83" value="&lt;b&gt;&lt;u&gt;Sub_code&lt;/u&gt;&lt;/b&gt;" style="whiteSpace=wrap;html=1;align=center;" parent="1" vertex="1">
          <mxGeometry x="271" y="3607" width="110" height="30" as="geometry" />
        </mxCell>
        <mxCell id="-_VpLG-gP_l9ovldw-cs-84" value="&lt;b&gt;&lt;u&gt;Exam_code&lt;/u&gt;&lt;/b&gt;" style="whiteSpace=wrap;html=1;align=center;" parent="1" vertex="1">
          <mxGeometry x="381" y="3607" width="110" height="30" as="geometry" />
        </mxCell>
        <mxCell id="-_VpLG-gP_l9ovldw-cs-85" value="&lt;b&gt;Marks&lt;/b&gt;" style="whiteSpace=wrap;html=1;align=center;" parent="1" vertex="1">
          <mxGeometry x="491" y="3607" width="110" height="30" as="geometry" />
        </mxCell>
        <mxCell id="-_VpLG-gP_l9ovldw-cs-86" value="&lt;b&gt;Type&lt;/b&gt;" style="whiteSpace=wrap;html=1;align=center;" parent="1" vertex="1">
          <mxGeometry x="601" y="3607" width="110" height="30" as="geometry" />
        </mxCell>
        <mxCell id="Z2Ysq-v7f8SYOui31A2H-3" style="edgeStyle=orthogonalEdgeStyle;rounded=0;orthogonalLoop=1;jettySize=auto;html=1;exitX=0.5;exitY=0;exitDx=0;exitDy=0;entryX=0.5;entryY=1;entryDx=0;entryDy=0;" edge="1" parent="1" source="-_VpLG-gP_l9ovldw-cs-87" target="CgrZ7WxuLpIuJzu3LAh--15">
          <mxGeometry relative="1" as="geometry">
            <Array as="points">
              <mxPoint x="495" y="200" />
              <mxPoint x="210" y="200" />
            </Array>
          </mxGeometry>
        </mxCell>
        <mxCell id="-_VpLG-gP_l9ovldw-cs-87" value="&lt;b&gt;&lt;u&gt;Fac_id&lt;/u&gt;&lt;/b&gt;" style="whiteSpace=wrap;html=1;align=center;" parent="1" vertex="1">
          <mxGeometry x="450" y="249" width="90" height="30" as="geometry" />
        </mxCell>
        <mxCell id="Z2Ysq-v7f8SYOui31A2H-11" style="edgeStyle=orthogonalEdgeStyle;rounded=0;orthogonalLoop=1;jettySize=auto;html=1;exitX=0.5;exitY=0;exitDx=0;exitDy=0;entryX=0;entryY=0.333;entryDx=0;entryDy=0;entryPerimeter=0;" edge="1" parent="1" source="CgrZ7WxuLpIuJzu3LAh--57" target="CgrZ7WxuLpIuJzu3LAh--27">
          <mxGeometry relative="1" as="geometry">
            <mxPoint x="130" y="390" as="targetPoint" />
            <Array as="points">
              <mxPoint x="210" y="910" />
              <mxPoint x="100" y="910" />
              <mxPoint x="100" y="390" />
            </Array>
          </mxGeometry>
        </mxCell>
        <mxCell id="Z2Ysq-v7f8SYOui31A2H-20" style="edgeStyle=orthogonalEdgeStyle;rounded=0;orthogonalLoop=1;jettySize=auto;html=1;exitX=0.5;exitY=0;exitDx=0;exitDy=0;entryX=0.88;entryY=1.061;entryDx=0;entryDy=0;entryPerimeter=0;" edge="1" parent="1" source="CgrZ7WxuLpIuJzu3LAh--140" target="CgrZ7WxuLpIuJzu3LAh--66">
          <mxGeometry relative="1" as="geometry">
            <Array as="points">
              <mxPoint x="986" y="1870" />
              <mxPoint x="1100" y="1870" />
              <mxPoint x="1100" y="1176" />
              <mxPoint x="248" y="1176" />
            </Array>
          </mxGeometry>
        </mxCell>
        <mxCell id="Z2Ysq-v7f8SYOui31A2H-24" style="edgeStyle=orthogonalEdgeStyle;rounded=0;orthogonalLoop=1;jettySize=auto;html=1;exitX=0.5;exitY=0;exitDx=0;exitDy=0;entryX=0;entryY=0.5;entryDx=0;entryDy=0;" edge="1" parent="1" source="-_VpLG-gP_l9ovldw-cs-12" target="CgrZ7WxuLpIuJzu3LAh--66">
          <mxGeometry relative="1" as="geometry">
            <mxPoint x="150" y="1150" as="targetPoint" />
            <Array as="points">
              <mxPoint x="326" y="2210" />
              <mxPoint x="80" y="2210" />
              <mxPoint x="80" y="1150" />
              <mxPoint x="140" y="1150" />
            </Array>
          </mxGeometry>
        </mxCell>
        <mxCell id="Z2Ysq-v7f8SYOui31A2H-27" style="edgeStyle=orthogonalEdgeStyle;rounded=0;orthogonalLoop=1;jettySize=auto;html=1;exitX=0.5;exitY=0;exitDx=0;exitDy=0;entryX=0.469;entryY=0.826;entryDx=0;entryDy=0;entryPerimeter=0;" edge="1" parent="1" source="-_VpLG-gP_l9ovldw-cs-63" target="-_VpLG-gP_l9ovldw-cs-27">
          <mxGeometry relative="1" as="geometry">
            <Array as="points">
              <mxPoint x="215" y="3330" />
              <mxPoint x="870" y="3330" />
              <mxPoint x="870" y="2440" />
              <mxPoint x="211" y="2440" />
            </Array>
          </mxGeometry>
        </mxCell>
        <mxCell id="Z2Ysq-v7f8SYOui31A2H-28" style="edgeStyle=orthogonalEdgeStyle;rounded=0;orthogonalLoop=1;jettySize=auto;html=1;exitX=0.721;exitY=0.036;exitDx=0;exitDy=0;entryX=0.75;entryY=0;entryDx=0;entryDy=0;exitPerimeter=0;" edge="1" parent="1" source="-_VpLG-gP_l9ovldw-cs-56" target="CgrZ7WxuLpIuJzu3LAh--27">
          <mxGeometry relative="1" as="geometry">
            <mxPoint x="236" y="3166" as="sourcePoint" />
            <mxPoint x="265" y="420" as="targetPoint" />
            <Array as="points">
              <mxPoint x="235" y="3230" />
              <mxPoint x="1380" y="3230" />
              <mxPoint x="1380" y="360" />
              <mxPoint x="235" y="360" />
            </Array>
          </mxGeometry>
        </mxCell>
        <mxCell id="Z2Ysq-v7f8SYOui31A2H-31" style="edgeStyle=orthogonalEdgeStyle;rounded=0;orthogonalLoop=1;jettySize=auto;html=1;entryX=0.434;entryY=0.072;entryDx=0;entryDy=0;entryPerimeter=0;exitX=0.542;exitY=1.051;exitDx=0;exitDy=0;exitPerimeter=0;" edge="1" parent="1">
          <mxGeometry relative="1" as="geometry">
            <mxPoint x="210.5299999999999" y="3555.5299999999997" as="sourcePoint" />
            <mxPoint x="194.3100000000001" y="1139.1600000000003" as="targetPoint" />
            <Array as="points">
              <mxPoint x="210.91" y="3570" />
              <mxPoint x="1555.91" y="3570" />
              <mxPoint x="1555.91" y="1111" />
              <mxPoint x="190.91" y="1111" />
              <mxPoint x="190.91" y="1139" />
            </Array>
          </mxGeometry>
        </mxCell>
        <mxCell id="Z2Ysq-v7f8SYOui31A2H-32" style="edgeStyle=orthogonalEdgeStyle;rounded=0;orthogonalLoop=1;jettySize=auto;html=1;exitX=0.5;exitY=1;exitDx=0;exitDy=0;entryX=0.689;entryY=0.933;entryDx=0;entryDy=0;entryPerimeter=0;" edge="1" parent="1" source="-_VpLG-gP_l9ovldw-cs-84" target="CgrZ7WxuLpIuJzu3LAh--97">
          <mxGeometry relative="1" as="geometry">
            <Array as="points">
              <mxPoint x="436" y="3670" />
              <mxPoint x="1600" y="3670" />
              <mxPoint x="1600" y="1700" />
              <mxPoint x="229" y="1700" />
            </Array>
          </mxGeometry>
        </mxCell>
      </root>
    </mxGraphModel>
  </diagram>
</mxfile>
